<?xml version="1.0" encoding="utf-8"?>
<svg xmlns="http://www.w3.org/2000/svg" xmlns:xlink="http://www.w3.org/1999/xlink" width="528" height="336" viewBox="0 0 2112 1344">
<defs>
  <clipPath id="clip390">
    <rect x="0" y="0" width="2112" height="1344"/>
  </clipPath>
</defs>
<path clip-path="url(#clip390)" d="M0 1344 L2112 1344 L2112 0 L0 0  Z" fill="#ffffff" fill-rule="evenodd" fill-opacity="1"/>
<defs>
  <clipPath id="clip391">
    <rect x="422" y="0" width="1479" height="1344"/>
  </clipPath>
</defs>
<path clip-path="url(#clip390)" d="M214.34 1173.47 L2064.76 1173.47 L2064.76 47.2441 L214.34 47.2441  Z" fill="#ffffff" fill-rule="evenodd" fill-opacity="1"/>
<defs>
  <clipPath id="clip392">
    <rect x="214" y="47" width="1851" height="1127"/>
  </clipPath>
</defs>
<polyline clip-path="url(#clip392)" style="stroke:#000000; stroke-linecap:round; stroke-linejoin:round; stroke-width:2; stroke-opacity:0.1; fill:none" points="450.8,1173.47 450.8,47.2441 "/>
<polyline clip-path="url(#clip392)" style="stroke:#000000; stroke-linecap:round; stroke-linejoin:round; stroke-width:2; stroke-opacity:0.1; fill:none" points="768.195,1173.47 768.195,47.2441 "/>
<polyline clip-path="url(#clip392)" style="stroke:#000000; stroke-linecap:round; stroke-linejoin:round; stroke-width:2; stroke-opacity:0.1; fill:none" points="1085.59,1173.47 1085.59,47.2441 "/>
<polyline clip-path="url(#clip392)" style="stroke:#000000; stroke-linecap:round; stroke-linejoin:round; stroke-width:2; stroke-opacity:0.1; fill:none" points="1402.99,1173.47 1402.99,47.2441 "/>
<polyline clip-path="url(#clip392)" style="stroke:#000000; stroke-linecap:round; stroke-linejoin:round; stroke-width:2; stroke-opacity:0.1; fill:none" points="1720.38,1173.47 1720.38,47.2441 "/>
<polyline clip-path="url(#clip392)" style="stroke:#000000; stroke-linecap:round; stroke-linejoin:round; stroke-width:2; stroke-opacity:0.1; fill:none" points="2037.78,1173.47 2037.78,47.2441 "/>
<polyline clip-path="url(#clip392)" style="stroke:#000000; stroke-linecap:round; stroke-linejoin:round; stroke-width:2; stroke-opacity:0.1; fill:none" points="214.34,1141.6 2064.76,1141.6 "/>
<polyline clip-path="url(#clip392)" style="stroke:#000000; stroke-linecap:round; stroke-linejoin:round; stroke-width:2; stroke-opacity:0.1; fill:none" points="214.34,796.519 2064.76,796.519 "/>
<polyline clip-path="url(#clip392)" style="stroke:#000000; stroke-linecap:round; stroke-linejoin:round; stroke-width:2; stroke-opacity:0.1; fill:none" points="214.34,451.441 2064.76,451.441 "/>
<polyline clip-path="url(#clip392)" style="stroke:#000000; stroke-linecap:round; stroke-linejoin:round; stroke-width:2; stroke-opacity:0.1; fill:none" points="214.34,106.363 2064.76,106.363 "/>
<polyline clip-path="url(#clip390)" style="stroke:#000000; stroke-linecap:round; stroke-linejoin:round; stroke-width:4; stroke-opacity:1; fill:none" points="214.34,1173.47 2064.76,1173.47 "/>
<polyline clip-path="url(#clip390)" style="stroke:#000000; stroke-linecap:round; stroke-linejoin:round; stroke-width:4; stroke-opacity:1; fill:none" points="450.8,1173.47 450.8,1154.57 "/>
<polyline clip-path="url(#clip390)" style="stroke:#000000; stroke-linecap:round; stroke-linejoin:round; stroke-width:4; stroke-opacity:1; fill:none" points="768.195,1173.47 768.195,1154.57 "/>
<polyline clip-path="url(#clip390)" style="stroke:#000000; stroke-linecap:round; stroke-linejoin:round; stroke-width:4; stroke-opacity:1; fill:none" points="1085.59,1173.47 1085.59,1154.57 "/>
<polyline clip-path="url(#clip390)" style="stroke:#000000; stroke-linecap:round; stroke-linejoin:round; stroke-width:4; stroke-opacity:1; fill:none" points="1402.99,1173.47 1402.99,1154.57 "/>
<polyline clip-path="url(#clip390)" style="stroke:#000000; stroke-linecap:round; stroke-linejoin:round; stroke-width:4; stroke-opacity:1; fill:none" points="1720.38,1173.47 1720.38,1154.57 "/>
<polyline clip-path="url(#clip390)" style="stroke:#000000; stroke-linecap:round; stroke-linejoin:round; stroke-width:4; stroke-opacity:1; fill:none" points="2037.78,1173.47 2037.78,1154.57 "/>
<path clip-path="url(#clip390)" d="M440.14 1214.93 Q443.497 1215.65 445.372 1217.92 Q447.27 1220.19 447.27 1223.52 Q447.27 1228.64 443.751 1231.44 Q440.233 1234.24 433.751 1234.24 Q431.575 1234.24 429.261 1233.8 Q426.969 1233.38 424.515 1232.53 L424.515 1228.01 Q426.46 1229.15 428.774 1229.72 Q431.089 1230.3 433.612 1230.3 Q438.011 1230.3 440.302 1228.57 Q442.617 1226.83 442.617 1223.52 Q442.617 1220.46 440.464 1218.75 Q438.335 1217.02 434.515 1217.02 L430.487 1217.02 L430.487 1213.17 L434.7 1213.17 Q438.149 1213.17 439.978 1211.81 Q441.807 1210.42 441.807 1207.83 Q441.807 1205.16 439.909 1203.75 Q438.034 1202.32 434.515 1202.32 Q432.594 1202.32 430.395 1202.73 Q428.196 1203.15 425.557 1204.03 L425.557 1199.86 Q428.219 1199.12 430.534 1198.75 Q432.872 1198.38 434.932 1198.38 Q440.256 1198.38 443.358 1200.81 Q446.46 1203.22 446.46 1207.34 Q446.46 1210.21 444.816 1212.2 Q443.173 1214.17 440.14 1214.93 Z" fill="#000000" fill-rule="nonzero" fill-opacity="1" /><path clip-path="url(#clip390)" d="M456.182 1199.01 L474.538 1199.01 L474.538 1202.94 L460.464 1202.94 L460.464 1211.41 Q461.483 1211.07 462.501 1210.9 Q463.52 1210.72 464.538 1210.72 Q470.325 1210.72 473.705 1213.89 Q477.084 1217.06 477.084 1222.48 Q477.084 1228.06 473.612 1231.16 Q470.14 1234.24 463.821 1234.24 Q461.645 1234.24 459.376 1233.87 Q457.131 1233.5 454.723 1232.76 L454.723 1228.06 Q456.807 1229.19 459.029 1229.75 Q461.251 1230.3 463.728 1230.3 Q467.733 1230.3 470.071 1228.2 Q472.408 1226.09 472.408 1222.48 Q472.408 1218.87 470.071 1216.76 Q467.733 1214.65 463.728 1214.65 Q461.853 1214.65 459.978 1215.07 Q458.126 1215.49 456.182 1216.37 L456.182 1199.01 Z" fill="#000000" fill-rule="nonzero" fill-opacity="1" /><path clip-path="url(#clip390)" d="M756.367 1203.08 L744.561 1221.53 L756.367 1221.53 L756.367 1203.08 M755.14 1199.01 L761.019 1199.01 L761.019 1221.53 L765.95 1221.53 L765.95 1225.42 L761.019 1225.42 L761.019 1233.57 L756.367 1233.57 L756.367 1225.42 L740.765 1225.42 L740.765 1220.9 L755.14 1199.01 Z" fill="#000000" fill-rule="nonzero" fill-opacity="1" /><path clip-path="url(#clip390)" d="M783.681 1202.09 Q780.07 1202.09 778.242 1205.65 Q776.436 1209.19 776.436 1216.32 Q776.436 1223.43 778.242 1226.99 Q780.07 1230.53 783.681 1230.53 Q787.316 1230.53 789.121 1226.99 Q790.95 1223.43 790.95 1216.32 Q790.95 1209.19 789.121 1205.65 Q787.316 1202.09 783.681 1202.09 M783.681 1198.38 Q789.491 1198.38 792.547 1202.99 Q795.626 1207.57 795.626 1216.32 Q795.626 1225.05 792.547 1229.65 Q789.491 1234.24 783.681 1234.24 Q777.871 1234.24 774.792 1229.65 Q771.737 1225.05 771.737 1216.32 Q771.737 1207.57 774.792 1202.99 Q777.871 1198.38 783.681 1198.38 Z" fill="#000000" fill-rule="nonzero" fill-opacity="1" /><path clip-path="url(#clip390)" d="M1074.26 1203.08 L1062.45 1221.53 L1074.26 1221.53 L1074.26 1203.08 M1073.03 1199.01 L1078.91 1199.01 L1078.91 1221.53 L1083.84 1221.53 L1083.84 1225.42 L1078.91 1225.42 L1078.91 1233.57 L1074.26 1233.57 L1074.26 1225.42 L1058.66 1225.42 L1058.66 1220.9 L1073.03 1199.01 Z" fill="#000000" fill-rule="nonzero" fill-opacity="1" /><path clip-path="url(#clip390)" d="M1091.62 1199.01 L1109.98 1199.01 L1109.98 1202.94 L1095.9 1202.94 L1095.9 1211.41 Q1096.92 1211.07 1097.94 1210.9 Q1098.96 1210.72 1099.98 1210.72 Q1105.76 1210.72 1109.14 1213.89 Q1112.52 1217.06 1112.52 1222.48 Q1112.52 1228.06 1109.05 1231.16 Q1105.58 1234.24 1099.26 1234.24 Q1097.08 1234.24 1094.82 1233.87 Q1092.57 1233.5 1090.16 1232.76 L1090.16 1228.06 Q1092.25 1229.19 1094.47 1229.75 Q1096.69 1230.3 1099.17 1230.3 Q1103.17 1230.3 1105.51 1228.2 Q1107.85 1226.09 1107.85 1222.48 Q1107.85 1218.87 1105.51 1216.76 Q1103.17 1214.65 1099.17 1214.65 Q1097.29 1214.65 1095.42 1215.07 Q1093.57 1215.49 1091.62 1216.37 L1091.62 1199.01 Z" fill="#000000" fill-rule="nonzero" fill-opacity="1" /><path clip-path="url(#clip390)" d="M1377.69 1199.01 L1396.04 1199.01 L1396.04 1202.94 L1381.97 1202.94 L1381.97 1211.41 Q1382.99 1211.07 1384 1210.9 Q1385.02 1210.72 1386.04 1210.72 Q1391.83 1210.72 1395.21 1213.89 Q1398.59 1217.06 1398.59 1222.48 Q1398.59 1228.06 1395.12 1231.16 Q1391.64 1234.24 1385.32 1234.24 Q1383.15 1234.24 1380.88 1233.87 Q1378.63 1233.5 1376.23 1232.76 L1376.23 1228.06 Q1378.31 1229.19 1380.53 1229.75 Q1382.75 1230.3 1385.23 1230.3 Q1389.24 1230.3 1391.57 1228.2 Q1393.91 1226.09 1393.91 1222.48 Q1393.91 1218.87 1391.57 1216.76 Q1389.24 1214.65 1385.23 1214.65 Q1383.36 1214.65 1381.48 1215.07 Q1379.63 1215.49 1377.69 1216.37 L1377.69 1199.01 Z" fill="#000000" fill-rule="nonzero" fill-opacity="1" /><path clip-path="url(#clip390)" d="M1417.8 1202.09 Q1414.19 1202.09 1412.36 1205.65 Q1410.56 1209.19 1410.56 1216.32 Q1410.56 1223.43 1412.36 1226.99 Q1414.19 1230.53 1417.8 1230.53 Q1421.44 1230.53 1423.24 1226.99 Q1425.07 1223.43 1425.07 1216.32 Q1425.07 1209.19 1423.24 1205.65 Q1421.44 1202.09 1417.8 1202.09 M1417.8 1198.38 Q1423.61 1198.38 1426.67 1202.99 Q1429.75 1207.57 1429.75 1216.32 Q1429.75 1225.05 1426.67 1229.65 Q1423.61 1234.24 1417.8 1234.24 Q1411.99 1234.24 1408.91 1229.65 Q1405.86 1225.05 1405.86 1216.32 Q1405.86 1207.57 1408.91 1202.99 Q1411.99 1198.38 1417.8 1198.38 Z" fill="#000000" fill-rule="nonzero" fill-opacity="1" /><path clip-path="url(#clip390)" d="M1695.58 1199.01 L1713.94 1199.01 L1713.94 1202.94 L1699.86 1202.94 L1699.86 1211.41 Q1700.88 1211.07 1701.9 1210.9 Q1702.92 1210.72 1703.94 1210.72 Q1709.72 1210.72 1713.1 1213.89 Q1716.48 1217.06 1716.48 1222.48 Q1716.48 1228.06 1713.01 1231.16 Q1709.54 1234.24 1703.22 1234.24 Q1701.04 1234.24 1698.77 1233.87 Q1696.53 1233.5 1694.12 1232.76 L1694.12 1228.06 Q1696.2 1229.19 1698.43 1229.75 Q1700.65 1230.3 1703.12 1230.3 Q1707.13 1230.3 1709.47 1228.2 Q1711.81 1226.09 1711.81 1222.48 Q1711.81 1218.87 1709.47 1216.76 Q1707.13 1214.65 1703.12 1214.65 Q1701.25 1214.65 1699.37 1215.07 Q1697.52 1215.49 1695.58 1216.37 L1695.58 1199.01 Z" fill="#000000" fill-rule="nonzero" fill-opacity="1" /><path clip-path="url(#clip390)" d="M1725.74 1199.01 L1744.1 1199.01 L1744.1 1202.94 L1730.02 1202.94 L1730.02 1211.41 Q1731.04 1211.07 1732.06 1210.9 Q1733.08 1210.72 1734.1 1210.72 Q1739.88 1210.72 1743.26 1213.89 Q1746.64 1217.06 1746.64 1222.48 Q1746.64 1228.06 1743.17 1231.16 Q1739.7 1234.24 1733.38 1234.24 Q1731.2 1234.24 1728.93 1233.87 Q1726.69 1233.5 1724.28 1232.76 L1724.28 1228.06 Q1726.37 1229.19 1728.59 1229.75 Q1730.81 1230.3 1733.29 1230.3 Q1737.29 1230.3 1739.63 1228.2 Q1741.97 1226.09 1741.97 1222.48 Q1741.97 1218.87 1739.63 1216.76 Q1737.29 1214.65 1733.29 1214.65 Q1731.41 1214.65 1729.54 1215.07 Q1727.68 1215.49 1725.74 1216.37 L1725.74 1199.01 Z" fill="#000000" fill-rule="nonzero" fill-opacity="1" /><path clip-path="url(#clip390)" d="M2023.18 1214.42 Q2020.03 1214.42 2018.18 1216.58 Q2016.35 1218.73 2016.35 1222.48 Q2016.35 1226.21 2018.18 1228.38 Q2020.03 1230.53 2023.18 1230.53 Q2026.33 1230.53 2028.16 1228.38 Q2030.01 1226.21 2030.01 1222.48 Q2030.01 1218.73 2028.16 1216.58 Q2026.33 1214.42 2023.18 1214.42 M2032.46 1199.77 L2032.46 1204.03 Q2030.71 1203.2 2028.9 1202.76 Q2027.12 1202.32 2025.36 1202.32 Q2020.73 1202.32 2018.28 1205.44 Q2015.84 1208.57 2015.5 1214.89 Q2016.86 1212.87 2018.92 1211.81 Q2020.98 1210.72 2023.46 1210.72 Q2028.67 1210.72 2031.68 1213.89 Q2034.71 1217.04 2034.71 1222.48 Q2034.71 1227.8 2031.56 1231.02 Q2028.41 1234.24 2023.18 1234.24 Q2017.19 1234.24 2014.02 1229.65 Q2010.84 1225.05 2010.84 1216.32 Q2010.84 1208.13 2014.73 1203.27 Q2018.62 1198.38 2025.17 1198.38 Q2026.93 1198.38 2028.71 1198.73 Q2030.52 1199.08 2032.46 1199.77 Z" fill="#000000" fill-rule="nonzero" fill-opacity="1" /><path clip-path="url(#clip390)" d="M2052.77 1202.09 Q2049.15 1202.09 2047.33 1205.65 Q2045.52 1209.19 2045.52 1216.32 Q2045.52 1223.43 2047.33 1226.99 Q2049.15 1230.53 2052.77 1230.53 Q2056.4 1230.53 2058.21 1226.99 Q2060.03 1223.43 2060.03 1216.32 Q2060.03 1209.19 2058.21 1205.65 Q2056.4 1202.09 2052.77 1202.09 M2052.77 1198.38 Q2058.58 1198.38 2061.63 1202.99 Q2064.71 1207.57 2064.71 1216.32 Q2064.71 1225.05 2061.63 1229.65 Q2058.58 1234.24 2052.77 1234.24 Q2046.96 1234.24 2043.88 1229.65 Q2040.82 1225.05 2040.82 1216.32 Q2040.82 1207.57 2043.88 1202.99 Q2046.96 1198.38 2052.77 1198.38 Z" fill="#000000" fill-rule="nonzero" fill-opacity="1" /><path clip-path="url(#clip390)" d="M864.359 1266.49 L870.788 1266.49 L870.788 1308.6 L893.927 1308.6 L893.927 1314.01 L864.359 1314.01 L864.359 1266.49 Z" fill="#000000" fill-rule="nonzero" fill-opacity="1" /><path clip-path="url(#clip390)" d="M913.088 1282.47 Q908.377 1282.47 905.64 1286.16 Q902.903 1289.83 902.903 1296.22 Q902.903 1302.62 905.608 1306.31 Q908.346 1309.97 913.088 1309.97 Q917.767 1309.97 920.504 1306.28 Q923.241 1302.59 923.241 1296.22 Q923.241 1289.89 920.504 1286.2 Q917.767 1282.47 913.088 1282.47 M913.088 1277.51 Q920.727 1277.51 925.087 1282.47 Q929.448 1287.44 929.448 1296.22 Q929.448 1304.98 925.087 1309.97 Q920.727 1314.94 913.088 1314.94 Q905.417 1314.94 901.057 1309.97 Q896.728 1304.98 896.728 1296.22 Q896.728 1287.44 901.057 1282.47 Q905.417 1277.51 913.088 1277.51 Z" fill="#000000" fill-rule="nonzero" fill-opacity="1" /><path clip-path="url(#clip390)" d="M968.788 1292.5 L968.788 1314.01 L962.932 1314.01 L962.932 1292.69 Q962.932 1287.63 960.958 1285.11 Q958.985 1282.6 955.038 1282.6 Q950.296 1282.6 947.558 1285.62 Q944.821 1288.65 944.821 1293.87 L944.821 1314.01 L938.933 1314.01 L938.933 1278.37 L944.821 1278.37 L944.821 1283.9 Q946.922 1280.69 949.754 1279.1 Q952.619 1277.51 956.343 1277.51 Q962.486 1277.51 965.637 1281.33 Q968.788 1285.11 968.788 1292.5 Z" fill="#000000" fill-rule="nonzero" fill-opacity="1" /><path clip-path="url(#clip390)" d="M1003.93 1295.78 Q1003.93 1289.41 1001.28 1285.91 Q998.675 1282.41 993.932 1282.41 Q989.222 1282.41 986.58 1285.91 Q983.97 1289.41 983.97 1295.78 Q983.97 1302.11 986.58 1305.61 Q989.222 1309.11 993.932 1309.11 Q998.675 1309.11 1001.28 1305.61 Q1003.93 1302.11 1003.93 1295.78 M1009.78 1309.59 Q1009.78 1318.69 1005.74 1323.12 Q1001.7 1327.57 993.36 1327.57 Q990.272 1327.57 987.535 1327.1 Q984.798 1326.65 982.22 1325.7 L982.22 1320 Q984.798 1321.4 987.312 1322.07 Q989.827 1322.74 992.437 1322.74 Q998.198 1322.74 1001.06 1319.71 Q1003.93 1316.72 1003.93 1310.64 L1003.93 1307.74 Q1002.11 1310.9 999.28 1312.46 Q996.447 1314.01 992.5 1314.01 Q985.944 1314.01 981.933 1309.02 Q977.923 1304.02 977.923 1295.78 Q977.923 1287.5 981.933 1282.5 Q985.944 1277.51 992.5 1277.51 Q996.447 1277.51 999.28 1279.07 Q1002.11 1280.63 1003.93 1283.78 L1003.93 1278.37 L1009.78 1278.37 L1009.78 1309.59 Z" fill="#000000" fill-rule="nonzero" fill-opacity="1" /><path clip-path="url(#clip390)" d="M1021.85 1278.37 L1027.7 1278.37 L1027.7 1314.01 L1021.85 1314.01 L1021.85 1278.37 M1021.85 1264.49 L1027.7 1264.49 L1027.7 1271.91 L1021.85 1271.91 L1021.85 1264.49 Z" fill="#000000" fill-rule="nonzero" fill-opacity="1" /><path clip-path="url(#clip390)" d="M1045.75 1268.25 L1045.75 1278.37 L1057.81 1278.37 L1057.81 1282.92 L1045.75 1282.92 L1045.75 1302.27 Q1045.75 1306.63 1046.93 1307.87 Q1048.14 1309.11 1051.8 1309.11 L1057.81 1309.11 L1057.81 1314.01 L1051.8 1314.01 Q1045.02 1314.01 1042.44 1311.5 Q1039.86 1308.95 1039.86 1302.27 L1039.86 1282.92 L1035.56 1282.92 L1035.56 1278.37 L1039.86 1278.37 L1039.86 1268.25 L1045.75 1268.25 Z" fill="#000000" fill-rule="nonzero" fill-opacity="1" /><path clip-path="url(#clip390)" d="M1064.91 1299.95 L1064.91 1278.37 L1070.77 1278.37 L1070.77 1299.72 Q1070.77 1304.78 1072.74 1307.33 Q1074.71 1309.85 1078.66 1309.85 Q1083.4 1309.85 1086.14 1306.82 Q1088.91 1303.8 1088.91 1298.58 L1088.91 1278.37 L1094.77 1278.37 L1094.77 1314.01 L1088.91 1314.01 L1088.91 1308.54 Q1086.78 1311.79 1083.94 1313.38 Q1081.14 1314.94 1077.42 1314.94 Q1071.28 1314.94 1068.09 1311.12 Q1064.91 1307.3 1064.91 1299.95 M1079.65 1277.51 L1079.65 1277.51 Z" fill="#000000" fill-rule="nonzero" fill-opacity="1" /><path clip-path="url(#clip390)" d="M1130.29 1283.78 L1130.29 1264.49 L1136.14 1264.49 L1136.14 1314.01 L1130.29 1314.01 L1130.29 1308.67 Q1128.44 1311.85 1125.61 1313.41 Q1122.81 1314.94 1118.86 1314.94 Q1112.4 1314.94 1108.32 1309.78 Q1104.28 1304.63 1104.28 1296.22 Q1104.28 1287.82 1108.32 1282.66 Q1112.4 1277.51 1118.86 1277.51 Q1122.81 1277.51 1125.61 1279.07 Q1128.44 1280.59 1130.29 1283.78 M1110.33 1296.22 Q1110.33 1302.68 1112.97 1306.38 Q1115.64 1310.04 1120.29 1310.04 Q1124.94 1310.04 1127.61 1306.38 Q1130.29 1302.68 1130.29 1296.22 Q1130.29 1289.76 1127.61 1286.1 Q1124.94 1282.41 1120.29 1282.41 Q1115.64 1282.41 1112.97 1286.1 Q1110.33 1289.76 1110.33 1296.22 Z" fill="#000000" fill-rule="nonzero" fill-opacity="1" /><path clip-path="url(#clip390)" d="M1192.38 1283.78 L1192.38 1264.49 L1198.24 1264.49 L1198.24 1314.01 L1192.38 1314.01 L1192.38 1308.67 Q1190.54 1311.85 1187.7 1313.41 Q1184.9 1314.94 1180.96 1314.94 Q1174.5 1314.94 1170.42 1309.78 Q1166.38 1304.63 1166.38 1296.22 Q1166.38 1287.82 1170.42 1282.66 Q1174.5 1277.51 1180.96 1277.51 Q1184.9 1277.51 1187.7 1279.07 Q1190.54 1280.59 1192.38 1283.78 M1172.43 1296.22 Q1172.43 1302.68 1175.07 1306.38 Q1177.74 1310.04 1182.39 1310.04 Q1187.04 1310.04 1189.71 1306.38 Q1192.38 1302.68 1192.38 1296.22 Q1192.38 1289.76 1189.71 1286.1 Q1187.04 1282.41 1182.39 1282.41 Q1177.74 1282.41 1175.07 1286.1 Q1172.43 1289.76 1172.43 1296.22 Z" fill="#000000" fill-rule="nonzero" fill-opacity="1" /><path clip-path="url(#clip390)" d="M1240.79 1294.73 L1240.79 1297.59 L1213.87 1297.59 Q1214.25 1303.64 1217.5 1306.82 Q1220.77 1309.97 1226.6 1309.97 Q1229.97 1309.97 1233.12 1309.14 Q1236.31 1308.32 1239.43 1306.66 L1239.43 1312.2 Q1236.27 1313.54 1232.96 1314.24 Q1229.65 1314.94 1226.25 1314.94 Q1217.72 1314.94 1212.72 1309.97 Q1207.76 1305.01 1207.76 1296.54 Q1207.76 1287.79 1212.47 1282.66 Q1217.21 1277.51 1225.23 1277.51 Q1232.42 1277.51 1236.59 1282.15 Q1240.79 1286.77 1240.79 1294.73 M1234.94 1293.01 Q1234.87 1288.2 1232.23 1285.34 Q1229.62 1282.47 1225.29 1282.47 Q1220.39 1282.47 1217.43 1285.24 Q1214.5 1288.01 1214.06 1293.04 L1234.94 1293.01 Z" fill="#000000" fill-rule="nonzero" fill-opacity="1" /><path clip-path="url(#clip390)" d="M1250.41 1264.49 L1256.26 1264.49 L1256.26 1314.01 L1250.41 1314.01 L1250.41 1264.49 Z" fill="#000000" fill-rule="nonzero" fill-opacity="1" /><path clip-path="url(#clip390)" d="M1294.9 1308.67 L1294.9 1327.57 L1289.01 1327.57 L1289.01 1278.37 L1294.9 1278.37 L1294.9 1283.78 Q1296.75 1280.59 1299.55 1279.07 Q1302.38 1277.51 1306.3 1277.51 Q1312.79 1277.51 1316.83 1282.66 Q1320.91 1287.82 1320.91 1296.22 Q1320.91 1304.63 1316.83 1309.78 Q1312.79 1314.94 1306.3 1314.94 Q1302.38 1314.94 1299.55 1313.41 Q1296.75 1311.85 1294.9 1308.67 M1314.83 1296.22 Q1314.83 1289.76 1312.15 1286.1 Q1309.51 1282.41 1304.87 1282.41 Q1300.22 1282.41 1297.54 1286.1 Q1294.9 1289.76 1294.9 1296.22 Q1294.9 1302.68 1297.54 1306.38 Q1300.22 1310.04 1304.87 1310.04 Q1309.51 1310.04 1312.15 1306.38 Q1314.83 1302.68 1314.83 1296.22 Z" fill="#000000" fill-rule="nonzero" fill-opacity="1" /><path clip-path="url(#clip390)" d="M1330.61 1278.37 L1336.47 1278.37 L1336.47 1314.01 L1330.61 1314.01 L1330.61 1278.37 M1330.61 1264.49 L1336.47 1264.49 L1336.47 1271.91 L1330.61 1271.91 L1330.61 1264.49 Z" fill="#000000" fill-rule="nonzero" fill-opacity="1" /><path clip-path="url(#clip390)" d="M1374.38 1279.74 L1374.38 1285.21 Q1371.9 1283.84 1369.38 1283.17 Q1366.9 1282.47 1364.35 1282.47 Q1358.66 1282.47 1355.5 1286.1 Q1352.35 1289.7 1352.35 1296.22 Q1352.35 1302.75 1355.5 1306.38 Q1358.66 1309.97 1364.35 1309.97 Q1366.9 1309.97 1369.38 1309.3 Q1371.9 1308.6 1374.38 1307.24 L1374.38 1312.65 Q1371.93 1313.79 1369.29 1314.36 Q1366.68 1314.94 1363.72 1314.94 Q1355.66 1314.94 1350.92 1309.88 Q1346.18 1304.82 1346.18 1296.22 Q1346.18 1287.5 1350.95 1282.5 Q1355.76 1277.51 1364.1 1277.51 Q1366.8 1277.51 1369.38 1278.08 Q1371.96 1278.62 1374.38 1279.74 Z" fill="#000000" fill-rule="nonzero" fill-opacity="1" /><path clip-path="url(#clip390)" d="M1398.38 1282.47 Q1393.67 1282.47 1390.93 1286.16 Q1388.19 1289.83 1388.19 1296.22 Q1388.19 1302.62 1390.9 1306.31 Q1393.64 1309.97 1398.38 1309.97 Q1403.06 1309.97 1405.79 1306.28 Q1408.53 1302.59 1408.53 1296.22 Q1408.53 1289.89 1405.79 1286.2 Q1403.06 1282.47 1398.38 1282.47 M1398.38 1277.51 Q1406.02 1277.51 1410.38 1282.47 Q1414.74 1287.44 1414.74 1296.22 Q1414.74 1304.98 1410.38 1309.97 Q1406.02 1314.94 1398.38 1314.94 Q1390.71 1314.94 1386.35 1309.97 Q1382.02 1304.98 1382.02 1296.22 Q1382.02 1287.44 1386.35 1282.47 Q1390.71 1277.51 1398.38 1277.51 Z" fill="#000000" fill-rule="nonzero" fill-opacity="1" /><polyline clip-path="url(#clip390)" style="stroke:#000000; stroke-linecap:round; stroke-linejoin:round; stroke-width:4; stroke-opacity:1; fill:none" points="214.34,1173.47 214.34,47.2441 "/>
<polyline clip-path="url(#clip390)" style="stroke:#000000; stroke-linecap:round; stroke-linejoin:round; stroke-width:4; stroke-opacity:1; fill:none" points="214.34,1141.6 233.238,1141.6 "/>
<polyline clip-path="url(#clip390)" style="stroke:#000000; stroke-linecap:round; stroke-linejoin:round; stroke-width:4; stroke-opacity:1; fill:none" points="214.34,796.519 233.238,796.519 "/>
<polyline clip-path="url(#clip390)" style="stroke:#000000; stroke-linecap:round; stroke-linejoin:round; stroke-width:4; stroke-opacity:1; fill:none" points="214.34,451.441 233.238,451.441 "/>
<polyline clip-path="url(#clip390)" style="stroke:#000000; stroke-linecap:round; stroke-linejoin:round; stroke-width:4; stroke-opacity:1; fill:none" points="214.34,106.363 233.238,106.363 "/>
<path clip-path="url(#clip390)" d="M125.485 1127.4 Q121.873 1127.4 120.045 1130.96 Q118.239 1134.5 118.239 1141.63 Q118.239 1148.74 120.045 1152.3 Q121.873 1155.84 125.485 1155.84 Q129.119 1155.84 130.924 1152.3 Q132.753 1148.74 132.753 1141.63 Q132.753 1134.5 130.924 1130.96 Q129.119 1127.4 125.485 1127.4 M125.485 1123.69 Q131.295 1123.69 134.35 1128.3 Q137.429 1132.88 137.429 1141.63 Q137.429 1150.36 134.35 1154.96 Q131.295 1159.55 125.485 1159.55 Q119.674 1159.55 116.596 1154.96 Q113.54 1150.36 113.54 1141.63 Q113.54 1132.88 116.596 1128.3 Q119.674 1123.69 125.485 1123.69 Z" fill="#000000" fill-rule="nonzero" fill-opacity="1" /><path clip-path="url(#clip390)" d="M145.646 1153 L150.531 1153 L150.531 1158.88 L145.646 1158.88 L145.646 1153 Z" fill="#000000" fill-rule="nonzero" fill-opacity="1" /><path clip-path="url(#clip390)" d="M170.716 1127.4 Q167.105 1127.4 165.276 1130.96 Q163.47 1134.5 163.47 1141.63 Q163.47 1148.74 165.276 1152.3 Q167.105 1155.84 170.716 1155.84 Q174.35 1155.84 176.156 1152.3 Q177.984 1148.74 177.984 1141.63 Q177.984 1134.5 176.156 1130.96 Q174.35 1127.4 170.716 1127.4 M170.716 1123.69 Q176.526 1123.69 179.581 1128.3 Q182.66 1132.88 182.66 1141.63 Q182.66 1150.36 179.581 1154.96 Q176.526 1159.55 170.716 1159.55 Q164.906 1159.55 161.827 1154.96 Q158.771 1150.36 158.771 1141.63 Q158.771 1132.88 161.827 1128.3 Q164.906 1123.69 170.716 1123.69 Z" fill="#000000" fill-rule="nonzero" fill-opacity="1" /><path clip-path="url(#clip390)" d="M126.711 782.317 Q123.1 782.317 121.272 785.882 Q119.466 789.424 119.466 796.553 Q119.466 803.66 121.272 807.225 Q123.1 810.766 126.711 810.766 Q130.346 810.766 132.151 807.225 Q133.98 803.66 133.98 796.553 Q133.98 789.424 132.151 785.882 Q130.346 782.317 126.711 782.317 M126.711 778.614 Q132.522 778.614 135.577 783.22 Q138.656 787.803 138.656 796.553 Q138.656 805.28 135.577 809.887 Q132.522 814.47 126.711 814.47 Q120.901 814.47 117.823 809.887 Q114.767 805.28 114.767 796.553 Q114.767 787.803 117.823 783.22 Q120.901 778.614 126.711 778.614 Z" fill="#000000" fill-rule="nonzero" fill-opacity="1" /><path clip-path="url(#clip390)" d="M146.873 807.919 L151.758 807.919 L151.758 813.799 L146.873 813.799 L146.873 807.919 Z" fill="#000000" fill-rule="nonzero" fill-opacity="1" /><path clip-path="url(#clip390)" d="M162.753 809.863 L170.392 809.863 L170.392 783.498 L162.082 785.164 L162.082 780.905 L170.345 779.239 L175.021 779.239 L175.021 809.863 L182.66 809.863 L182.66 813.799 L162.753 813.799 L162.753 809.863 Z" fill="#000000" fill-rule="nonzero" fill-opacity="1" /><path clip-path="url(#clip390)" d="M127.082 437.239 Q123.471 437.239 121.642 440.804 Q119.836 444.346 119.836 451.475 Q119.836 458.582 121.642 462.147 Q123.471 465.688 127.082 465.688 Q130.716 465.688 132.522 462.147 Q134.35 458.582 134.35 451.475 Q134.35 444.346 132.522 440.804 Q130.716 437.239 127.082 437.239 M127.082 433.536 Q132.892 433.536 135.947 438.142 Q139.026 442.725 139.026 451.475 Q139.026 460.202 135.947 464.809 Q132.892 469.392 127.082 469.392 Q121.272 469.392 118.193 464.809 Q115.137 460.202 115.137 451.475 Q115.137 442.725 118.193 438.142 Q121.272 433.536 127.082 433.536 Z" fill="#000000" fill-rule="nonzero" fill-opacity="1" /><path clip-path="url(#clip390)" d="M147.244 462.841 L152.128 462.841 L152.128 468.721 L147.244 468.721 L147.244 462.841 Z" fill="#000000" fill-rule="nonzero" fill-opacity="1" /><path clip-path="url(#clip390)" d="M166.341 464.786 L182.66 464.786 L182.66 468.721 L160.716 468.721 L160.716 464.786 Q163.378 462.031 167.961 457.401 Q172.568 452.749 173.748 451.406 Q175.994 448.883 176.873 447.147 Q177.776 445.387 177.776 443.698 Q177.776 440.943 175.831 439.207 Q173.91 437.471 170.808 437.471 Q168.609 437.471 166.156 438.235 Q163.725 438.999 160.947 440.55 L160.947 435.827 Q163.771 434.693 166.225 434.114 Q168.679 433.536 170.716 433.536 Q176.086 433.536 179.281 436.221 Q182.475 438.906 182.475 443.397 Q182.475 445.526 181.665 447.448 Q180.878 449.346 178.771 451.938 Q178.193 452.61 175.091 455.827 Q171.989 459.022 166.341 464.786 Z" fill="#000000" fill-rule="nonzero" fill-opacity="1" /><path clip-path="url(#clip390)" d="M126.133 92.1615 Q122.522 92.1615 120.693 95.7263 Q118.887 99.268 118.887 106.398 Q118.887 113.504 120.693 117.069 Q122.522 120.61 126.133 120.61 Q129.767 120.61 131.572 117.069 Q133.401 113.504 133.401 106.398 Q133.401 99.268 131.572 95.7263 Q129.767 92.1615 126.133 92.1615 M126.133 88.4579 Q131.943 88.4579 134.998 93.0643 Q138.077 97.6476 138.077 106.398 Q138.077 115.124 134.998 119.731 Q131.943 124.314 126.133 124.314 Q120.323 124.314 117.244 119.731 Q114.188 115.124 114.188 106.398 Q114.188 97.6476 117.244 93.0643 Q120.323 88.4579 126.133 88.4579 Z" fill="#000000" fill-rule="nonzero" fill-opacity="1" /><path clip-path="url(#clip390)" d="M146.295 117.763 L151.179 117.763 L151.179 123.643 L146.295 123.643 L146.295 117.763 Z" fill="#000000" fill-rule="nonzero" fill-opacity="1" /><path clip-path="url(#clip390)" d="M175.531 105.009 Q178.887 105.726 180.762 107.995 Q182.66 110.263 182.66 113.597 Q182.66 118.712 179.142 121.513 Q175.623 124.314 169.142 124.314 Q166.966 124.314 164.651 123.874 Q162.359 123.458 159.906 122.601 L159.906 118.087 Q161.85 119.222 164.165 119.8 Q166.48 120.379 169.003 120.379 Q173.401 120.379 175.693 118.643 Q178.007 116.907 178.007 113.597 Q178.007 110.541 175.855 108.828 Q173.725 107.092 169.906 107.092 L165.878 107.092 L165.878 103.249 L170.091 103.249 Q173.54 103.249 175.369 101.884 Q177.197 100.495 177.197 97.9022 Q177.197 95.2402 175.299 93.8282 Q173.424 92.393 169.906 92.393 Q167.984 92.393 165.785 92.8097 Q163.586 93.2263 160.947 94.106 L160.947 89.9393 Q163.609 89.1986 165.924 88.8282 Q168.262 88.4579 170.322 88.4579 Q175.646 88.4579 178.748 90.8884 Q181.85 93.2958 181.85 97.4161 Q181.85 100.286 180.206 102.277 Q178.563 104.245 175.531 105.009 Z" fill="#000000" fill-rule="nonzero" fill-opacity="1" /><path clip-path="url(#clip390)" d="M45.3242 1002.55 Q46.0244 1000.48 48.3161 998.538 Q50.6077 996.565 54.6181 994.591 L67.6042 988.067 L67.6042 994.973 L55.4138 1001.05 Q50.6395 1003.41 49.08 1005.64 Q47.5204 1007.83 47.5204 1011.65 L47.5204 1018.65 L67.6042 1018.65 L67.6042 1025.08 L20.0842 1025.08 L20.0842 1010.57 Q20.0842 1002.42 23.4898 998.411 Q26.8955 994.401 33.7704 994.401 Q38.2582 994.401 41.2183 996.501 Q44.1784 998.57 45.3242 1002.55 M25.3677 1018.65 L42.2368 1018.65 L42.2368 1010.57 Q42.2368 1005.92 40.1043 1003.57 Q37.94 1001.18 33.7704 1001.18 Q29.6009 1001.18 27.5002 1003.57 Q25.3677 1005.92 25.3677 1010.57 L25.3677 1018.65 Z" fill="#000000" fill-rule="nonzero" fill-opacity="1" /><path clip-path="url(#clip390)" d="M48.3161 952.482 L51.1806 952.482 L51.1806 979.409 Q57.2281 979.027 60.4109 975.781 Q63.5619 972.502 63.5619 966.678 Q63.5619 963.304 62.7344 960.153 Q61.9069 956.97 60.2518 953.851 L65.7899 953.851 Q67.1267 957.002 67.827 960.312 Q68.5272 963.622 68.5272 967.028 Q68.5272 975.558 63.5619 980.555 Q58.5967 985.52 50.1303 985.52 Q41.3774 985.52 36.2531 980.81 Q31.0968 976.067 31.0968 968.046 Q31.0968 960.853 35.7438 956.684 Q40.3589 952.482 48.3161 952.482 M46.5973 958.339 Q41.7912 958.402 38.9266 961.044 Q36.0621 963.654 36.0621 967.983 Q36.0621 972.884 38.8312 975.844 Q41.6002 978.773 46.6292 979.218 L46.5973 958.339 Z" fill="#000000" fill-rule="nonzero" fill-opacity="1" /><path clip-path="url(#clip390)" d="M37.3671 919.412 L18.079 919.412 L18.079 913.556 L67.6042 913.556 L67.6042 919.412 L62.257 919.412 Q65.4398 921.259 66.9994 924.091 Q68.5272 926.892 68.5272 930.839 Q68.5272 937.3 63.371 941.374 Q58.2147 945.416 49.812 945.416 Q41.4093 945.416 36.2531 941.374 Q31.0968 937.3 31.0968 930.839 Q31.0968 926.892 32.6564 924.091 Q34.1842 921.259 37.3671 919.412 M49.812 939.369 Q56.2732 939.369 59.9653 936.727 Q63.6256 934.054 63.6256 929.407 Q63.6256 924.76 59.9653 922.086 Q56.2732 919.412 49.812 919.412 Q43.3508 919.412 39.6905 922.086 Q35.9984 924.76 35.9984 929.407 Q35.9984 934.054 39.6905 936.727 Q43.3508 939.369 49.812 939.369 Z" fill="#000000" fill-rule="nonzero" fill-opacity="1" /><path clip-path="url(#clip390)" d="M53.5359 902.098 L31.9562 902.098 L31.9562 896.241 L53.3131 896.241 Q58.3739 896.241 60.9202 894.268 Q63.4346 892.295 63.4346 888.348 Q63.4346 883.605 60.4109 880.868 Q57.3872 878.099 52.1673 878.099 L31.9562 878.099 L31.9562 872.243 L67.6042 872.243 L67.6042 878.099 L62.1296 878.099 Q65.3762 880.232 66.9676 883.064 Q68.5272 885.865 68.5272 889.589 Q68.5272 895.732 64.7078 898.915 Q60.8883 902.098 53.5359 902.098 M31.0968 887.361 L31.0968 887.361 Z" fill="#000000" fill-rule="nonzero" fill-opacity="1" /><path clip-path="url(#clip390)" d="M33.3248 834.526 L38.7993 834.526 Q37.4307 837.008 36.7623 839.523 Q36.0621 842.005 36.0621 844.552 Q36.0621 850.249 39.6905 853.4 Q43.2872 856.551 49.812 856.551 Q56.3369 856.551 59.9653 853.4 Q63.5619 850.249 63.5619 844.552 Q63.5619 842.005 62.8935 839.523 Q62.1933 837.008 60.8247 834.526 L66.2355 834.526 Q67.3814 836.977 67.9543 839.618 Q68.5272 842.228 68.5272 845.188 Q68.5272 853.241 63.4664 857.983 Q58.4057 862.726 49.812 862.726 Q41.091 862.726 36.0939 857.952 Q31.0968 853.145 31.0968 844.806 Q31.0968 842.101 31.6697 839.523 Q32.2108 836.945 33.3248 834.526 Z" fill="#000000" fill-rule="nonzero" fill-opacity="1" /><path clip-path="url(#clip390)" d="M33.3248 798.687 L38.7993 798.687 Q37.4307 801.169 36.7623 803.684 Q36.0621 806.167 36.0621 808.713 Q36.0621 814.41 39.6905 817.561 Q43.2872 820.712 49.812 820.712 Q56.3369 820.712 59.9653 817.561 Q63.5619 814.41 63.5619 808.713 Q63.5619 806.167 62.8935 803.684 Q62.1933 801.169 60.8247 798.687 L66.2355 798.687 Q67.3814 801.138 67.9543 803.779 Q68.5272 806.389 68.5272 809.349 Q68.5272 817.402 63.4664 822.144 Q58.4057 826.887 49.812 826.887 Q41.091 826.887 36.0939 822.113 Q31.0968 817.307 31.0968 808.967 Q31.0968 806.262 31.6697 803.684 Q32.2108 801.106 33.3248 798.687 Z" fill="#000000" fill-rule="nonzero" fill-opacity="1" /><path clip-path="url(#clip390)" d="M31.9562 788.502 L31.9562 782.645 L67.6042 782.645 L67.6042 788.502 L31.9562 788.502 M18.079 788.502 L18.079 782.645 L25.495 782.645 L25.495 788.502 L18.079 788.502 Z" fill="#000000" fill-rule="nonzero" fill-opacity="1" /><path clip-path="url(#clip390)" d="M36.0621 756.578 Q36.0621 761.288 39.7542 764.026 Q43.4145 766.763 49.812 766.763 Q56.2095 766.763 59.9017 764.057 Q63.5619 761.32 63.5619 756.578 Q63.5619 751.899 59.8698 749.162 Q56.1777 746.424 49.812 746.424 Q43.4781 746.424 39.786 749.162 Q36.0621 751.899 36.0621 756.578 M31.0968 756.578 Q31.0968 748.939 36.0621 744.578 Q41.0273 740.218 49.812 740.218 Q58.5649 740.218 63.5619 744.578 Q68.5272 748.939 68.5272 756.578 Q68.5272 764.248 63.5619 768.609 Q58.5649 772.938 49.812 772.938 Q41.0273 772.938 36.0621 768.609 Q31.0968 764.248 31.0968 756.578 M15.469 752.154 L15.469 745.82 L27.4365 756.196 L27.4365 761.066 L15.469 752.154 Z" fill="#000000" fill-rule="nonzero" fill-opacity="1" /><path clip-path="url(#clip390)" d="M46.0881 700.878 L67.6042 700.878 L67.6042 706.734 L46.279 706.734 Q41.2183 706.734 38.7038 708.708 Q36.1894 710.681 36.1894 714.628 Q36.1894 719.37 39.2131 722.107 Q42.2368 724.845 47.4567 724.845 L67.6042 724.845 L67.6042 730.733 L31.9562 730.733 L31.9562 724.845 L37.4944 724.845 Q34.2797 722.744 32.6883 719.911 Q31.0968 717.047 31.0968 713.323 Q31.0968 707.18 34.9163 704.029 Q38.7038 700.878 46.0881 700.878 Z" fill="#000000" fill-rule="nonzero" fill-opacity="1" /><path clip-path="url(#clip390)" d="M37.3671 645.019 L18.079 645.019 L18.079 639.162 L67.6042 639.162 L67.6042 645.019 L62.257 645.019 Q65.4398 646.865 66.9994 649.697 Q68.5272 652.498 68.5272 656.445 Q68.5272 662.906 63.371 666.98 Q58.2147 671.023 49.812 671.023 Q41.4093 671.023 36.2531 666.98 Q31.0968 662.906 31.0968 656.445 Q31.0968 652.498 32.6564 649.697 Q34.1842 646.865 37.3671 645.019 M49.812 664.975 Q56.2732 664.975 59.9653 662.333 Q63.6256 659.66 63.6256 655.013 Q63.6256 650.366 59.9653 647.692 Q56.2732 645.019 49.812 645.019 Q43.3508 645.019 39.6905 647.692 Q35.9984 650.366 35.9984 655.013 Q35.9984 659.66 39.6905 662.333 Q43.3508 664.975 49.812 664.975 Z" fill="#000000" fill-rule="nonzero" fill-opacity="1" /><path clip-path="url(#clip390)" d="M48.3161 596.607 L51.1806 596.607 L51.1806 623.534 Q57.2281 623.152 60.4109 619.906 Q63.5619 616.628 63.5619 610.803 Q63.5619 607.429 62.7344 604.278 Q61.9069 601.095 60.2518 597.976 L65.7899 597.976 Q67.1267 601.127 67.827 604.437 Q68.5272 607.747 68.5272 611.153 Q68.5272 619.683 63.5619 624.68 Q58.5967 629.646 50.1303 629.646 Q41.3774 629.646 36.2531 624.935 Q31.0968 620.192 31.0968 612.172 Q31.0968 604.978 35.7438 600.809 Q40.3589 596.607 48.3161 596.607 M46.5973 602.464 Q41.7912 602.528 38.9266 605.169 Q36.0621 607.779 36.0621 612.108 Q36.0621 617.01 38.8312 619.97 Q41.6002 622.898 46.6292 623.343 L46.5973 602.464 Z" fill="#000000" fill-rule="nonzero" fill-opacity="1" /><path clip-path="url(#clip390)" d="M18.079 566.275 L18.079 560.418 L67.6042 560.418 L67.6042 566.275 L18.079 566.275 Z" fill="#000000" fill-rule="nonzero" fill-opacity="1" /><path clip-path="url(#clip390)" d="M49.6847 531.964 Q49.6847 539.062 51.3079 541.799 Q52.9312 544.536 56.8461 544.536 Q59.9653 544.536 61.8114 542.499 Q63.6256 540.43 63.6256 536.897 Q63.6256 532.027 60.1881 529.099 Q56.7188 526.139 50.9897 526.139 L49.6847 526.139 L49.6847 531.964 M47.2657 520.283 L67.6042 520.283 L67.6042 526.139 L62.1933 526.139 Q65.4398 528.144 66.9994 531.136 Q68.5272 534.128 68.5272 538.457 Q68.5272 543.931 65.4716 547.178 Q62.3843 550.392 57.2281 550.392 Q51.2125 550.392 48.1569 546.382 Q45.1014 542.34 45.1014 534.351 L45.1014 526.139 L44.5285 526.139 Q40.4862 526.139 38.2901 528.813 Q36.0621 531.454 36.0621 536.261 Q36.0621 539.316 36.7941 542.213 Q37.5262 545.109 38.9903 547.783 L33.5795 547.783 Q32.3381 544.568 31.7334 541.544 Q31.0968 538.52 31.0968 535.656 Q31.0968 527.922 35.1072 524.102 Q39.1176 520.283 47.2657 520.283 Z" fill="#000000" fill-rule="nonzero" fill-opacity="1" /><path clip-path="url(#clip390)" d="M31.9562 487.499 L31.9562 481.643 L67.6042 481.643 L67.6042 487.499 L31.9562 487.499 M18.079 487.499 L18.079 481.643 L25.495 481.643 L25.495 487.499 L18.079 487.499 Z" fill="#000000" fill-rule="nonzero" fill-opacity="1" /><path clip-path="url(#clip390)" d="M38.7993 441.634 Q34.8526 439.438 32.9747 436.383 Q31.0968 433.327 31.0968 429.189 Q31.0968 423.619 35.0117 420.596 Q38.8948 417.572 46.0881 417.572 L67.6042 417.572 L67.6042 423.46 L46.279 423.46 Q41.1546 423.46 38.672 425.275 Q36.1894 427.089 36.1894 430.813 Q36.1894 435.364 39.2131 438.006 Q42.2368 440.648 47.4567 440.648 L67.6042 440.648 L67.6042 446.536 L46.279 446.536 Q41.1228 446.536 38.672 448.35 Q36.1894 450.164 36.1894 453.952 Q36.1894 458.44 39.2449 461.082 Q42.2686 463.723 47.4567 463.723 L67.6042 463.723 L67.6042 469.612 L31.9562 469.612 L31.9562 463.723 L37.4944 463.723 Q34.216 461.718 32.6564 458.917 Q31.0968 456.116 31.0968 452.265 Q31.0968 448.382 33.0702 445.677 Q35.0436 442.939 38.7993 441.634 Z" fill="#000000" fill-rule="nonzero" fill-opacity="1" /><path clip-path="url(#clip390)" d="M62.257 400.225 L81.1631 400.225 L81.1631 406.114 L31.9562 406.114 L31.9562 400.225 L37.3671 400.225 Q34.1842 398.379 32.6564 395.578 Q31.0968 392.746 31.0968 388.831 Q31.0968 382.338 36.2531 378.296 Q41.4093 374.222 49.812 374.222 Q58.2147 374.222 63.371 378.296 Q68.5272 382.338 68.5272 388.831 Q68.5272 392.746 66.9994 395.578 Q65.4398 398.379 62.257 400.225 M49.812 380.301 Q43.3508 380.301 39.6905 382.974 Q35.9984 385.616 35.9984 390.263 Q35.9984 394.91 39.6905 397.584 Q43.3508 400.225 49.812 400.225 Q56.2732 400.225 59.9653 397.584 Q63.6256 394.91 63.6256 390.263 Q63.6256 385.616 59.9653 382.974 Q56.2732 380.301 49.812 380.301 Z" fill="#000000" fill-rule="nonzero" fill-opacity="1" /><path clip-path="url(#clip390)" d="M53.5359 365.119 L31.9562 365.119 L31.9562 359.262 L53.3131 359.262 Q58.3739 359.262 60.9202 357.289 Q63.4346 355.315 63.4346 351.369 Q63.4346 346.626 60.4109 343.889 Q57.3872 341.12 52.1673 341.12 L31.9562 341.12 L31.9562 335.263 L67.6042 335.263 L67.6042 341.12 L62.1296 341.12 Q65.3762 343.252 66.9676 346.085 Q68.5272 348.886 68.5272 352.61 Q68.5272 358.753 64.7078 361.936 Q60.8883 365.119 53.5359 365.119 M31.0968 350.382 L31.0968 350.382 Z" fill="#000000" fill-rule="nonzero" fill-opacity="1" /><path clip-path="url(#clip390)" d="M37.4307 302.544 Q36.8578 303.53 36.6032 304.708 Q36.3167 305.854 36.3167 307.254 Q36.3167 312.22 39.5632 314.893 Q42.7779 317.535 48.8253 317.535 L67.6042 317.535 L67.6042 323.423 L31.9562 323.423 L31.9562 317.535 L37.4944 317.535 Q34.2479 315.689 32.6883 312.729 Q31.0968 309.769 31.0968 305.536 Q31.0968 304.931 31.1923 304.199 Q31.256 303.467 31.4151 302.576 L37.4307 302.544 Z" fill="#000000" fill-rule="nonzero" fill-opacity="1" /><path clip-path="url(#clip390)" d="M48.3161 267.341 L51.1806 267.341 L51.1806 294.268 Q57.2281 293.886 60.4109 290.64 Q63.5619 287.361 63.5619 281.537 Q63.5619 278.163 62.7344 275.012 Q61.9069 271.829 60.2518 268.71 L65.7899 268.71 Q67.1267 271.861 67.827 275.171 Q68.5272 278.481 68.5272 281.887 Q68.5272 290.417 63.5619 295.414 Q58.5967 300.379 50.1303 300.379 Q41.3774 300.379 36.2531 295.669 Q31.0968 290.926 31.0968 282.905 Q31.0968 275.712 35.7438 271.543 Q40.3589 267.341 48.3161 267.341 M46.5973 273.198 Q41.7912 273.261 38.9266 275.903 Q36.0621 278.513 36.0621 282.842 Q36.0621 287.743 38.8312 290.703 Q41.6002 293.632 46.6292 294.077 L46.5973 273.198 Z" fill="#000000" fill-rule="nonzero" fill-opacity="1" /><path clip-path="url(#clip390)" d="M31.9562 260.275 L31.9562 232.457 L37.3034 232.457 L62.9254 254.483 L62.9254 232.457 L67.6042 232.457 L67.6042 261.071 L62.257 261.071 L36.635 239.046 L36.635 260.275 L31.9562 260.275 Z" fill="#000000" fill-rule="nonzero" fill-opacity="1" /><path clip-path="url(#clip390)" d="M49.6847 207.313 Q49.6847 214.41 51.3079 217.148 Q52.9312 219.885 56.8461 219.885 Q59.9653 219.885 61.8114 217.848 Q63.6256 215.779 63.6256 212.246 Q63.6256 207.376 60.1881 204.448 Q56.7188 201.488 50.9897 201.488 L49.6847 201.488 L49.6847 207.313 M47.2657 195.632 L67.6042 195.632 L67.6042 201.488 L62.1933 201.488 Q65.4398 203.493 66.9994 206.485 Q68.5272 209.477 68.5272 213.806 Q68.5272 219.28 65.4716 222.527 Q62.3843 225.741 57.2281 225.741 Q51.2125 225.741 48.1569 221.731 Q45.1014 217.689 45.1014 209.7 L45.1014 201.488 L44.5285 201.488 Q40.4862 201.488 38.2901 204.162 Q36.0621 206.803 36.0621 211.61 Q36.0621 214.665 36.7941 217.561 Q37.5262 220.458 38.9903 223.131 L33.5795 223.131 Q32.3381 219.917 31.7334 216.893 Q31.0968 213.869 31.0968 211.005 Q31.0968 203.27 35.1072 199.451 Q39.1176 195.632 47.2657 195.632 Z" fill="#000000" fill-rule="nonzero" fill-opacity="1" /><circle clip-path="url(#clip392)" cx="711.064" cy="621.322" r="14.4" fill="#009af9" fill-rule="evenodd" fill-opacity="1" stroke="#000000" stroke-opacity="1" stroke-width="2.688"/>
<circle clip-path="url(#clip392)" cx="736.456" cy="559.17" r="14.4" fill="#009af9" fill-rule="evenodd" fill-opacity="1" stroke="#000000" stroke-opacity="1" stroke-width="2.688"/>
<circle clip-path="url(#clip392)" cx="787.239" cy="402.965" r="14.4" fill="#009af9" fill-rule="evenodd" fill-opacity="1" stroke="#000000" stroke-opacity="1" stroke-width="2.688"/>
<circle clip-path="url(#clip392)" cx="558.714" cy="932.499" r="14.4" fill="#009af9" fill-rule="evenodd" fill-opacity="1" stroke="#000000" stroke-opacity="1" stroke-width="2.688"/>
<circle clip-path="url(#clip392)" cx="723.76" cy="586.233" r="14.4" fill="#009af9" fill-rule="evenodd" fill-opacity="1" stroke="#000000" stroke-opacity="1" stroke-width="2.688"/>
<circle clip-path="url(#clip392)" cx="698.368" cy="655.323" r="14.4" fill="#009af9" fill-rule="evenodd" fill-opacity="1" stroke="#000000" stroke-opacity="1" stroke-width="2.688"/>
<circle clip-path="url(#clip392)" cx="717.412" cy="595.11" r="14.4" fill="#009af9" fill-rule="evenodd" fill-opacity="1" stroke="#000000" stroke-opacity="1" stroke-width="2.688"/>
<circle clip-path="url(#clip392)" cx="838.022" cy="216.389" r="14.4" fill="#009af9" fill-rule="evenodd" fill-opacity="1" stroke="#000000" stroke-opacity="1" stroke-width="2.688"/>
<circle clip-path="url(#clip392)" cx="679.325" cy="704.392" r="14.4" fill="#009af9" fill-rule="evenodd" fill-opacity="1" stroke="#000000" stroke-opacity="1" stroke-width="2.688"/>
<circle clip-path="url(#clip392)" cx="425.408" cy="1100.42" r="14.4" fill="#009af9" fill-rule="evenodd" fill-opacity="1" stroke="#000000" stroke-opacity="1" stroke-width="2.688"/>
<circle clip-path="url(#clip392)" cx="552.366" cy="945.129" r="14.4" fill="#009af9" fill-rule="evenodd" fill-opacity="1" stroke="#000000" stroke-opacity="1" stroke-width="2.688"/>
<circle clip-path="url(#clip392)" cx="685.672" cy="696.369" r="14.4" fill="#009af9" fill-rule="evenodd" fill-opacity="1" stroke="#000000" stroke-opacity="1" stroke-width="2.688"/>
<circle clip-path="url(#clip392)" cx="926.893" cy="98.8344" r="14.4" fill="#009af9" fill-rule="evenodd" fill-opacity="1" stroke="#000000" stroke-opacity="1" stroke-width="2.688"/>
<circle clip-path="url(#clip392)" cx="412.712" cy="1116.1" r="14.4" fill="#009af9" fill-rule="evenodd" fill-opacity="1" stroke="#000000" stroke-opacity="1" stroke-width="2.688"/>
<circle clip-path="url(#clip392)" cx="1149.07" cy="467.975" r="14.4" fill="#009af9" fill-rule="evenodd" fill-opacity="1" stroke="#000000" stroke-opacity="1" stroke-width="2.688"/>
<circle clip-path="url(#clip392)" cx="628.541" cy="803.417" r="14.4" fill="#009af9" fill-rule="evenodd" fill-opacity="1" stroke="#000000" stroke-opacity="1" stroke-width="2.688"/>
<circle clip-path="url(#clip392)" cx="622.193" cy="824.963" r="14.4" fill="#009af9" fill-rule="evenodd" fill-opacity="1" stroke="#000000" stroke-opacity="1" stroke-width="2.688"/>
<circle clip-path="url(#clip392)" cx="507.931" cy="1029.01" r="14.4" fill="#009af9" fill-rule="evenodd" fill-opacity="1" stroke="#000000" stroke-opacity="1" stroke-width="2.688"/>
<circle clip-path="url(#clip392)" cx="653.933" cy="743.611" r="14.4" fill="#009af9" fill-rule="evenodd" fill-opacity="1" stroke="#000000" stroke-opacity="1" stroke-width="2.688"/>
<circle clip-path="url(#clip392)" cx="692.02" cy="671.931" r="14.4" fill="#009af9" fill-rule="evenodd" fill-opacity="1" stroke="#000000" stroke-opacity="1" stroke-width="2.688"/>
<circle clip-path="url(#clip392)" cx="469.844" cy="1073.64" r="14.4" fill="#009af9" fill-rule="evenodd" fill-opacity="1" stroke="#000000" stroke-opacity="1" stroke-width="2.688"/>
<circle clip-path="url(#clip392)" cx="806.283" cy="338.661" r="14.4" fill="#009af9" fill-rule="evenodd" fill-opacity="1" stroke="#000000" stroke-opacity="1" stroke-width="2.688"/>
<circle clip-path="url(#clip392)" cx="799.935" cy="381.905" r="14.4" fill="#009af9" fill-rule="evenodd" fill-opacity="1" stroke="#000000" stroke-opacity="1" stroke-width="2.688"/>
<circle clip-path="url(#clip392)" cx="634.889" cy="788.791" r="14.4" fill="#009af9" fill-rule="evenodd" fill-opacity="1" stroke="#000000" stroke-opacity="1" stroke-width="2.688"/>
<circle clip-path="url(#clip392)" cx="590.454" cy="893.563" r="14.4" fill="#009af9" fill-rule="evenodd" fill-opacity="1" stroke="#000000" stroke-opacity="1" stroke-width="2.688"/>
<circle clip-path="url(#clip392)" cx="825.326" cy="311.674" r="14.4" fill="#009af9" fill-rule="evenodd" fill-opacity="1" stroke="#000000" stroke-opacity="1" stroke-width="2.688"/>
<circle clip-path="url(#clip392)" cx="539.671" cy="969.887" r="14.4" fill="#009af9" fill-rule="evenodd" fill-opacity="1" stroke="#000000" stroke-opacity="1" stroke-width="2.688"/>
<circle clip-path="url(#clip392)" cx="907.849" cy="93.0496" r="14.4" fill="#009af9" fill-rule="evenodd" fill-opacity="1" stroke="#000000" stroke-opacity="1" stroke-width="2.688"/>
<circle clip-path="url(#clip392)" cx="615.845" cy="846.052" r="14.4" fill="#009af9" fill-rule="evenodd" fill-opacity="1" stroke="#000000" stroke-opacity="1" stroke-width="2.688"/>
<circle clip-path="url(#clip392)" cx="755.499" cy="464.014" r="14.4" fill="#009af9" fill-rule="evenodd" fill-opacity="1" stroke="#000000" stroke-opacity="1" stroke-width="2.688"/>
<circle clip-path="url(#clip392)" cx="546.018" cy="957.59" r="14.4" fill="#009af9" fill-rule="evenodd" fill-opacity="1" stroke="#000000" stroke-opacity="1" stroke-width="2.688"/>
<circle clip-path="url(#clip392)" cx="818.979" cy="305.205" r="14.4" fill="#009af9" fill-rule="evenodd" fill-opacity="1" stroke="#000000" stroke-opacity="1" stroke-width="2.688"/>
<circle clip-path="url(#clip392)" cx="514.279" cy="1005.82" r="14.4" fill="#009af9" fill-rule="evenodd" fill-opacity="1" stroke="#000000" stroke-opacity="1" stroke-width="2.688"/>
<circle clip-path="url(#clip392)" cx="1028.46" cy="194.83" r="14.4" fill="#009af9" fill-rule="evenodd" fill-opacity="1" stroke="#000000" stroke-opacity="1" stroke-width="2.688"/>
<circle clip-path="url(#clip392)" cx="577.758" cy="906.719" r="14.4" fill="#009af9" fill-rule="evenodd" fill-opacity="1" stroke="#000000" stroke-opacity="1" stroke-width="2.688"/>
<circle clip-path="url(#clip392)" cx="742.804" cy="512.575" r="14.4" fill="#009af9" fill-rule="evenodd" fill-opacity="1" stroke="#000000" stroke-opacity="1" stroke-width="2.688"/>
<circle clip-path="url(#clip392)" cx="914.197" cy="79.1184" r="14.4" fill="#009af9" fill-rule="evenodd" fill-opacity="1" stroke="#000000" stroke-opacity="1" stroke-width="2.688"/>
<circle clip-path="url(#clip392)" cx="774.543" cy="454.055" r="14.4" fill="#009af9" fill-rule="evenodd" fill-opacity="1" stroke="#000000" stroke-opacity="1" stroke-width="2.688"/>
<circle clip-path="url(#clip392)" cx="450.8" cy="1089.81" r="14.4" fill="#009af9" fill-rule="evenodd" fill-opacity="1" stroke="#000000" stroke-opacity="1" stroke-width="2.688"/>
<circle clip-path="url(#clip392)" cx="895.153" cy="134.001" r="14.4" fill="#009af9" fill-rule="evenodd" fill-opacity="1" stroke="#000000" stroke-opacity="1" stroke-width="2.688"/>
<circle clip-path="url(#clip392)" cx="419.06" cy="1110.9" r="14.4" fill="#009af9" fill-rule="evenodd" fill-opacity="1" stroke="#000000" stroke-opacity="1" stroke-width="2.688"/>
<circle clip-path="url(#clip392)" cx="857.066" cy="165.968" r="14.4" fill="#009af9" fill-rule="evenodd" fill-opacity="1" stroke="#000000" stroke-opacity="1" stroke-width="2.688"/>
<circle clip-path="url(#clip392)" cx="704.716" cy="629.922" r="14.4" fill="#009af9" fill-rule="evenodd" fill-opacity="1" stroke="#000000" stroke-opacity="1" stroke-width="2.688"/>
<circle clip-path="url(#clip392)" cx="495.235" cy="1040.38" r="14.4" fill="#009af9" fill-rule="evenodd" fill-opacity="1" stroke="#000000" stroke-opacity="1" stroke-width="2.688"/>
<circle clip-path="url(#clip392)" cx="850.718" cy="191.421" r="14.4" fill="#009af9" fill-rule="evenodd" fill-opacity="1" stroke="#000000" stroke-opacity="1" stroke-width="2.688"/>
<circle clip-path="url(#clip392)" cx="869.762" cy="126.848" r="14.4" fill="#009af9" fill-rule="evenodd" fill-opacity="1" stroke="#000000" stroke-opacity="1" stroke-width="2.688"/>
<circle clip-path="url(#clip392)" cx="482.539" cy="1062.69" r="14.4" fill="#009af9" fill-rule="evenodd" fill-opacity="1" stroke="#000000" stroke-opacity="1" stroke-width="2.688"/>
<circle clip-path="url(#clip392)" cx="882.458" cy="130.63" r="14.4" fill="#009af9" fill-rule="evenodd" fill-opacity="1" stroke="#000000" stroke-opacity="1" stroke-width="2.688"/>
<circle clip-path="url(#clip392)" cx="355.581" cy="1126.39" r="14.4" fill="#009af9" fill-rule="evenodd" fill-opacity="1" stroke="#000000" stroke-opacity="1" stroke-width="2.688"/>
<circle clip-path="url(#clip392)" cx="749.152" cy="473.889" r="14.4" fill="#009af9" fill-rule="evenodd" fill-opacity="1" stroke="#000000" stroke-opacity="1" stroke-width="2.688"/>
<circle clip-path="url(#clip392)" cx="1136.37" cy="467.454" r="14.4" fill="#009af9" fill-rule="evenodd" fill-opacity="1" stroke="#000000" stroke-opacity="1" stroke-width="2.688"/>
<circle clip-path="url(#clip392)" cx="945.937" cy="118.61" r="14.4" fill="#009af9" fill-rule="evenodd" fill-opacity="1" stroke="#000000" stroke-opacity="1" stroke-width="2.688"/>
<circle clip-path="url(#clip392)" cx="526.975" cy="988.03" r="14.4" fill="#009af9" fill-rule="evenodd" fill-opacity="1" stroke="#000000" stroke-opacity="1" stroke-width="2.688"/>
<circle clip-path="url(#clip392)" cx="901.501" cy="120.489" r="14.4" fill="#009af9" fill-rule="evenodd" fill-opacity="1" stroke="#000000" stroke-opacity="1" stroke-width="2.688"/>
<circle clip-path="url(#clip392)" cx="952.285" cy="119.757" r="14.4" fill="#009af9" fill-rule="evenodd" fill-opacity="1" stroke="#000000" stroke-opacity="1" stroke-width="2.688"/>
<circle clip-path="url(#clip392)" cx="457.148" cy="1084.45" r="14.4" fill="#009af9" fill-rule="evenodd" fill-opacity="1" stroke="#000000" stroke-opacity="1" stroke-width="2.688"/>
<circle clip-path="url(#clip392)" cx="596.802" cy="873.485" r="14.4" fill="#009af9" fill-rule="evenodd" fill-opacity="1" stroke="#000000" stroke-opacity="1" stroke-width="2.688"/>
<circle clip-path="url(#clip392)" cx="533.323" cy="982.022" r="14.4" fill="#009af9" fill-rule="evenodd" fill-opacity="1" stroke="#000000" stroke-opacity="1" stroke-width="2.688"/>
<circle clip-path="url(#clip392)" cx="571.41" cy="919.697" r="14.4" fill="#009af9" fill-rule="evenodd" fill-opacity="1" stroke="#000000" stroke-opacity="1" stroke-width="2.688"/>
<circle clip-path="url(#clip392)" cx="660.281" cy="735.884" r="14.4" fill="#009af9" fill-rule="evenodd" fill-opacity="1" stroke="#000000" stroke-opacity="1" stroke-width="2.688"/>
<circle clip-path="url(#clip392)" cx="387.321" cy="1121.26" r="14.4" fill="#009af9" fill-rule="evenodd" fill-opacity="1" stroke="#000000" stroke-opacity="1" stroke-width="2.688"/>
<circle clip-path="url(#clip392)" cx="647.585" cy="758.893" r="14.4" fill="#009af9" fill-rule="evenodd" fill-opacity="1" stroke="#000000" stroke-opacity="1" stroke-width="2.688"/>
<circle clip-path="url(#clip392)" cx="330.19" cy="1131.49" r="14.4" fill="#009af9" fill-rule="evenodd" fill-opacity="1" stroke="#000000" stroke-opacity="1" stroke-width="2.688"/>
<circle clip-path="url(#clip392)" cx="971.328" cy="101.211" r="14.4" fill="#009af9" fill-rule="evenodd" fill-opacity="1" stroke="#000000" stroke-opacity="1" stroke-width="2.688"/>
<circle clip-path="url(#clip392)" cx="831.674" cy="300.148" r="14.4" fill="#009af9" fill-rule="evenodd" fill-opacity="1" stroke="#000000" stroke-opacity="1" stroke-width="2.688"/>
<circle clip-path="url(#clip392)" cx="1123.68" cy="438.088" r="14.4" fill="#009af9" fill-rule="evenodd" fill-opacity="1" stroke="#000000" stroke-opacity="1" stroke-width="2.688"/>
<circle clip-path="url(#clip392)" cx="939.589" cy="117.091" r="14.4" fill="#009af9" fill-rule="evenodd" fill-opacity="1" stroke="#000000" stroke-opacity="1" stroke-width="2.688"/>
<circle clip-path="url(#clip392)" cx="780.891" cy="423.664" r="14.4" fill="#009af9" fill-rule="evenodd" fill-opacity="1" stroke="#000000" stroke-opacity="1" stroke-width="2.688"/>
<circle clip-path="url(#clip392)" cx="463.496" cy="1079.06" r="14.4" fill="#009af9" fill-rule="evenodd" fill-opacity="1" stroke="#000000" stroke-opacity="1" stroke-width="2.688"/>
<circle clip-path="url(#clip392)" cx="863.414" cy="140.016" r="14.4" fill="#009af9" fill-rule="evenodd" fill-opacity="1" stroke="#000000" stroke-opacity="1" stroke-width="2.688"/>
<circle clip-path="url(#clip392)" cx="672.977" cy="728.1" r="14.4" fill="#009af9" fill-rule="evenodd" fill-opacity="1" stroke="#000000" stroke-opacity="1" stroke-width="2.688"/>
<circle clip-path="url(#clip392)" cx="964.981" cy="105.189" r="14.4" fill="#009af9" fill-rule="evenodd" fill-opacity="1" stroke="#000000" stroke-opacity="1" stroke-width="2.688"/>
<circle clip-path="url(#clip392)" cx="565.062" cy="926.119" r="14.4" fill="#009af9" fill-rule="evenodd" fill-opacity="1" stroke="#000000" stroke-opacity="1" stroke-width="2.688"/>
<circle clip-path="url(#clip392)" cx="609.498" cy="866.699" r="14.4" fill="#009af9" fill-rule="evenodd" fill-opacity="1" stroke="#000000" stroke-opacity="1" stroke-width="2.688"/>
<circle clip-path="url(#clip392)" cx="488.887" cy="1057.17" r="14.4" fill="#009af9" fill-rule="evenodd" fill-opacity="1" stroke="#000000" stroke-opacity="1" stroke-width="2.688"/>
<circle clip-path="url(#clip392)" cx="266.71" cy="1136.56" r="14.4" fill="#009af9" fill-rule="evenodd" fill-opacity="1" stroke="#000000" stroke-opacity="1" stroke-width="2.688"/>
<circle clip-path="url(#clip392)" cx="812.631" cy="327.609" r="14.4" fill="#009af9" fill-rule="evenodd" fill-opacity="1" stroke="#000000" stroke-opacity="1" stroke-width="2.688"/>
<circle clip-path="url(#clip392)" cx="1155.42" cy="493.183" r="14.4" fill="#009af9" fill-rule="evenodd" fill-opacity="1" stroke="#000000" stroke-opacity="1" stroke-width="2.688"/>
<circle clip-path="url(#clip392)" cx="1402.99" cy="927.375" r="14.4" fill="#009af9" fill-rule="evenodd" fill-opacity="1" stroke="#000000" stroke-opacity="1" stroke-width="2.688"/>
<circle clip-path="url(#clip392)" cx="1320.46" cy="818.01" r="14.4" fill="#009af9" fill-rule="evenodd" fill-opacity="1" stroke="#000000" stroke-opacity="1" stroke-width="2.688"/>
<circle clip-path="url(#clip392)" cx="1250.64" cy="738.519" r="14.4" fill="#009af9" fill-rule="evenodd" fill-opacity="1" stroke="#000000" stroke-opacity="1" stroke-width="2.688"/>
<circle clip-path="url(#clip392)" cx="1180.81" cy="601.987" r="14.4" fill="#009af9" fill-rule="evenodd" fill-opacity="1" stroke="#000000" stroke-opacity="1" stroke-width="2.688"/>
<circle clip-path="url(#clip392)" cx="1110.98" cy="396.445" r="14.4" fill="#009af9" fill-rule="evenodd" fill-opacity="1" stroke="#000000" stroke-opacity="1" stroke-width="2.688"/>
<circle clip-path="url(#clip392)" cx="1193.51" cy="629.578" r="14.4" fill="#009af9" fill-rule="evenodd" fill-opacity="1" stroke="#000000" stroke-opacity="1" stroke-width="2.688"/>
<circle clip-path="url(#clip392)" cx="977.676" cy="131.136" r="14.4" fill="#009af9" fill-rule="evenodd" fill-opacity="1" stroke="#000000" stroke-opacity="1" stroke-width="2.688"/>
<circle clip-path="url(#clip392)" cx="1199.85" cy="657.044" r="14.4" fill="#009af9" fill-rule="evenodd" fill-opacity="1" stroke="#000000" stroke-opacity="1" stroke-width="2.688"/>
<circle clip-path="url(#clip392)" cx="1339.51" cy="839.145" r="14.4" fill="#009af9" fill-rule="evenodd" fill-opacity="1" stroke="#000000" stroke-opacity="1" stroke-width="2.688"/>
<circle clip-path="url(#clip392)" cx="1117.33" cy="443.981" r="14.4" fill="#009af9" fill-rule="evenodd" fill-opacity="1" stroke="#000000" stroke-opacity="1" stroke-width="2.688"/>
<circle clip-path="url(#clip392)" cx="1301.42" cy="786.48" r="14.4" fill="#009af9" fill-rule="evenodd" fill-opacity="1" stroke="#000000" stroke-opacity="1" stroke-width="2.688"/>
<circle clip-path="url(#clip392)" cx="1358.55" cy="868.864" r="14.4" fill="#009af9" fill-rule="evenodd" fill-opacity="1" stroke="#000000" stroke-opacity="1" stroke-width="2.688"/>
<circle clip-path="url(#clip392)" cx="1352.2" cy="858.88" r="14.4" fill="#009af9" fill-rule="evenodd" fill-opacity="1" stroke="#000000" stroke-opacity="1" stroke-width="2.688"/>
<circle clip-path="url(#clip392)" cx="1161.77" cy="526.139" r="14.4" fill="#009af9" fill-rule="evenodd" fill-opacity="1" stroke="#000000" stroke-opacity="1" stroke-width="2.688"/>
<circle clip-path="url(#clip392)" cx="1415.68" cy="952.206" r="14.4" fill="#009af9" fill-rule="evenodd" fill-opacity="1" stroke="#000000" stroke-opacity="1" stroke-width="2.688"/>
<circle clip-path="url(#clip392)" cx="1091.94" cy="293.887" r="14.4" fill="#009af9" fill-rule="evenodd" fill-opacity="1" stroke="#000000" stroke-opacity="1" stroke-width="2.688"/>
<circle clip-path="url(#clip392)" cx="1168.11" cy="534.478" r="14.4" fill="#009af9" fill-rule="evenodd" fill-opacity="1" stroke="#000000" stroke-opacity="1" stroke-width="2.688"/>
<circle clip-path="url(#clip392)" cx="1263.33" cy="749.814" r="14.4" fill="#009af9" fill-rule="evenodd" fill-opacity="1" stroke="#000000" stroke-opacity="1" stroke-width="2.688"/>
<circle clip-path="url(#clip392)" cx="1288.72" cy="771.946" r="14.4" fill="#009af9" fill-rule="evenodd" fill-opacity="1" stroke="#000000" stroke-opacity="1" stroke-width="2.688"/>
<circle clip-path="url(#clip392)" cx="1231.59" cy="695.898" r="14.4" fill="#009af9" fill-rule="evenodd" fill-opacity="1" stroke="#000000" stroke-opacity="1" stroke-width="2.688"/>
<circle clip-path="url(#clip392)" cx="2012.39" cy="1141.6" r="14.4" fill="#009af9" fill-rule="evenodd" fill-opacity="1" stroke="#000000" stroke-opacity="1" stroke-width="2.688"/>
<circle clip-path="url(#clip392)" cx="1345.86" cy="848.743" r="14.4" fill="#009af9" fill-rule="evenodd" fill-opacity="1" stroke="#000000" stroke-opacity="1" stroke-width="2.688"/>
<circle clip-path="url(#clip392)" cx="933.241" cy="115.193" r="14.4" fill="#009af9" fill-rule="evenodd" fill-opacity="1" stroke="#000000" stroke-opacity="1" stroke-width="2.688"/>
<circle clip-path="url(#clip392)" cx="1047.5" cy="207.996" r="14.4" fill="#009af9" fill-rule="evenodd" fill-opacity="1" stroke="#000000" stroke-opacity="1" stroke-width="2.688"/>
<circle clip-path="url(#clip392)" cx="1022.11" cy="224.477" r="14.4" fill="#009af9" fill-rule="evenodd" fill-opacity="1" stroke="#000000" stroke-opacity="1" stroke-width="2.688"/>
<circle clip-path="url(#clip392)" cx="1377.59" cy="895.254" r="14.4" fill="#009af9" fill-rule="evenodd" fill-opacity="1" stroke="#000000" stroke-opacity="1" stroke-width="2.688"/>
<circle clip-path="url(#clip392)" cx="1104.63" cy="377.496" r="14.4" fill="#009af9" fill-rule="evenodd" fill-opacity="1" stroke="#000000" stroke-opacity="1" stroke-width="2.688"/>
<circle clip-path="url(#clip392)" cx="1434.73" cy="975.87" r="14.4" fill="#009af9" fill-rule="evenodd" fill-opacity="1" stroke="#000000" stroke-opacity="1" stroke-width="2.688"/>
<circle clip-path="url(#clip392)" cx="996.72" cy="197.606" r="14.4" fill="#009af9" fill-rule="evenodd" fill-opacity="1" stroke="#000000" stroke-opacity="1" stroke-width="2.688"/>
<circle clip-path="url(#clip392)" cx="1079.24" cy="246.129" r="14.4" fill="#009af9" fill-rule="evenodd" fill-opacity="1" stroke="#000000" stroke-opacity="1" stroke-width="2.688"/>
<circle clip-path="url(#clip392)" cx="1098.29" cy="356.497" r="14.4" fill="#009af9" fill-rule="evenodd" fill-opacity="1" stroke="#000000" stroke-opacity="1" stroke-width="2.688"/>
<circle clip-path="url(#clip392)" cx="1187.16" cy="615.918" r="14.4" fill="#009af9" fill-rule="evenodd" fill-opacity="1" stroke="#000000" stroke-opacity="1" stroke-width="2.688"/>
<circle clip-path="url(#clip392)" cx="1307.77" cy="802.044" r="14.4" fill="#009af9" fill-rule="evenodd" fill-opacity="1" stroke="#000000" stroke-opacity="1" stroke-width="2.688"/>
<circle clip-path="url(#clip392)" cx="1409.33" cy="935.906" r="14.4" fill="#009af9" fill-rule="evenodd" fill-opacity="1" stroke="#000000" stroke-opacity="1" stroke-width="2.688"/>
<circle clip-path="url(#clip392)" cx="1085.59" cy="258.394" r="14.4" fill="#009af9" fill-rule="evenodd" fill-opacity="1" stroke="#000000" stroke-opacity="1" stroke-width="2.688"/>
<circle clip-path="url(#clip392)" cx="1009.42" cy="211.16" r="14.4" fill="#009af9" fill-rule="evenodd" fill-opacity="1" stroke="#000000" stroke-opacity="1" stroke-width="2.688"/>
<circle clip-path="url(#clip392)" cx="1428.38" cy="960.632" r="14.4" fill="#009af9" fill-rule="evenodd" fill-opacity="1" stroke="#000000" stroke-opacity="1" stroke-width="2.688"/>
<circle clip-path="url(#clip392)" cx="1130.03" cy="463.352" r="14.4" fill="#009af9" fill-rule="evenodd" fill-opacity="1" stroke="#000000" stroke-opacity="1" stroke-width="2.688"/>
<circle clip-path="url(#clip392)" cx="1675.95" cy="1126.37" r="14.4" fill="#009af9" fill-rule="evenodd" fill-opacity="1" stroke="#000000" stroke-opacity="1" stroke-width="2.688"/>
<circle clip-path="url(#clip392)" cx="1390.29" cy="913.787" r="14.4" fill="#009af9" fill-rule="evenodd" fill-opacity="1" stroke="#000000" stroke-opacity="1" stroke-width="2.688"/>
<circle clip-path="url(#clip392)" cx="1371.25" cy="883.647" r="14.4" fill="#009af9" fill-rule="evenodd" fill-opacity="1" stroke="#000000" stroke-opacity="1" stroke-width="2.688"/>
<circle clip-path="url(#clip392)" cx="990.372" cy="183.811" r="14.4" fill="#009af9" fill-rule="evenodd" fill-opacity="1" stroke="#000000" stroke-opacity="1" stroke-width="2.688"/>
<circle clip-path="url(#clip392)" cx="1447.42" cy="991.521" r="14.4" fill="#009af9" fill-rule="evenodd" fill-opacity="1" stroke="#000000" stroke-opacity="1" stroke-width="2.688"/>
<circle clip-path="url(#clip392)" cx="1256.98" cy="744.247" r="14.4" fill="#009af9" fill-rule="evenodd" fill-opacity="1" stroke="#000000" stroke-opacity="1" stroke-width="2.688"/>
<circle clip-path="url(#clip392)" cx="1174.46" cy="564.391" r="14.4" fill="#009af9" fill-rule="evenodd" fill-opacity="1" stroke="#000000" stroke-opacity="1" stroke-width="2.688"/>
<circle clip-path="url(#clip392)" cx="1314.12" cy="806.309" r="14.4" fill="#009af9" fill-rule="evenodd" fill-opacity="1" stroke="#000000" stroke-opacity="1" stroke-width="2.688"/>
<circle clip-path="url(#clip392)" cx="1244.29" cy="726.582" r="14.4" fill="#009af9" fill-rule="evenodd" fill-opacity="1" stroke="#000000" stroke-opacity="1" stroke-width="2.688"/>
<circle clip-path="url(#clip392)" cx="1472.81" cy="1027.91" r="14.4" fill="#009af9" fill-rule="evenodd" fill-opacity="1" stroke="#000000" stroke-opacity="1" stroke-width="2.688"/>
<circle clip-path="url(#clip392)" cx="1561.68" cy="1104.09" r="14.4" fill="#009af9" fill-rule="evenodd" fill-opacity="1" stroke="#000000" stroke-opacity="1" stroke-width="2.688"/>
<circle clip-path="url(#clip392)" cx="1237.94" cy="702.233" r="14.4" fill="#009af9" fill-rule="evenodd" fill-opacity="1" stroke="#000000" stroke-opacity="1" stroke-width="2.688"/>
<circle clip-path="url(#clip392)" cx="1453.77" cy="1006" r="14.4" fill="#009af9" fill-rule="evenodd" fill-opacity="1" stroke="#000000" stroke-opacity="1" stroke-width="2.688"/>
<circle clip-path="url(#clip392)" cx="984.024" cy="145.71" r="14.4" fill="#009af9" fill-rule="evenodd" fill-opacity="1" stroke="#000000" stroke-opacity="1" stroke-width="2.688"/>
<circle clip-path="url(#clip392)" cx="1485.51" cy="1050.2" r="14.4" fill="#009af9" fill-rule="evenodd" fill-opacity="1" stroke="#000000" stroke-opacity="1" stroke-width="2.688"/>
<circle clip-path="url(#clip392)" cx="1536.29" cy="1096.15" r="14.4" fill="#009af9" fill-rule="evenodd" fill-opacity="1" stroke="#000000" stroke-opacity="1" stroke-width="2.688"/>
<circle clip-path="url(#clip392)" cx="1542.64" cy="1102.89" r="14.4" fill="#009af9" fill-rule="evenodd" fill-opacity="1" stroke="#000000" stroke-opacity="1" stroke-width="2.688"/>
<circle clip-path="url(#clip392)" cx="1053.85" cy="220.933" r="14.4" fill="#009af9" fill-rule="evenodd" fill-opacity="1" stroke="#000000" stroke-opacity="1" stroke-width="2.688"/>
<circle clip-path="url(#clip392)" cx="1364.9" cy="871.518" r="14.4" fill="#009af9" fill-rule="evenodd" fill-opacity="1" stroke="#000000" stroke-opacity="1" stroke-width="2.688"/>
<circle clip-path="url(#clip392)" cx="1206.2" cy="670.023" r="14.4" fill="#009af9" fill-rule="evenodd" fill-opacity="1" stroke="#000000" stroke-opacity="1" stroke-width="2.688"/>
<circle clip-path="url(#clip392)" cx="1777.51" cy="1135.34" r="14.4" fill="#009af9" fill-rule="evenodd" fill-opacity="1" stroke="#000000" stroke-opacity="1" stroke-width="2.688"/>
<circle clip-path="url(#clip392)" cx="1225.24" cy="689.405" r="14.4" fill="#009af9" fill-rule="evenodd" fill-opacity="1" stroke="#000000" stroke-opacity="1" stroke-width="2.688"/>
<circle clip-path="url(#clip392)" cx="876.11" cy="143.902" r="14.4" fill="#009af9" fill-rule="evenodd" fill-opacity="1" stroke="#000000" stroke-opacity="1" stroke-width="2.688"/>
<circle clip-path="url(#clip392)" cx="1618.82" cy="1116.11" r="14.4" fill="#009af9" fill-rule="evenodd" fill-opacity="1" stroke="#000000" stroke-opacity="1" stroke-width="2.688"/>
<circle clip-path="url(#clip392)" cx="1282.38" cy="761.42" r="14.4" fill="#009af9" fill-rule="evenodd" fill-opacity="1" stroke="#000000" stroke-opacity="1" stroke-width="2.688"/>
<circle clip-path="url(#clip392)" cx="1498.2" cy="1064.27" r="14.4" fill="#009af9" fill-rule="evenodd" fill-opacity="1" stroke="#000000" stroke-opacity="1" stroke-width="2.688"/>
<circle clip-path="url(#clip392)" cx="1726.73" cy="1129.01" r="14.4" fill="#009af9" fill-rule="evenodd" fill-opacity="1" stroke="#000000" stroke-opacity="1" stroke-width="2.688"/>
<circle clip-path="url(#clip392)" cx="1326.81" cy="821.534" r="14.4" fill="#009af9" fill-rule="evenodd" fill-opacity="1" stroke="#000000" stroke-opacity="1" stroke-width="2.688"/>
<circle clip-path="url(#clip392)" cx="1396.64" cy="915.432" r="14.4" fill="#009af9" fill-rule="evenodd" fill-opacity="1" stroke="#000000" stroke-opacity="1" stroke-width="2.688"/>
<circle clip-path="url(#clip392)" cx="1574.38" cy="1109.54" r="14.4" fill="#009af9" fill-rule="evenodd" fill-opacity="1" stroke="#000000" stroke-opacity="1" stroke-width="2.688"/>
<circle clip-path="url(#clip392)" cx="1510.9" cy="1071.29" r="14.4" fill="#009af9" fill-rule="evenodd" fill-opacity="1" stroke="#000000" stroke-opacity="1" stroke-width="2.688"/>
<circle clip-path="url(#clip392)" cx="1212.55" cy="675.951" r="14.4" fill="#009af9" fill-rule="evenodd" fill-opacity="1" stroke="#000000" stroke-opacity="1" stroke-width="2.688"/>
<circle clip-path="url(#clip392)" cx="1529.94" cy="1094.05" r="14.4" fill="#009af9" fill-rule="evenodd" fill-opacity="1" stroke="#000000" stroke-opacity="1" stroke-width="2.688"/>
<circle clip-path="url(#clip392)" cx="1142.72" cy="475.083" r="14.4" fill="#009af9" fill-rule="evenodd" fill-opacity="1" stroke="#000000" stroke-opacity="1" stroke-width="2.688"/>
<circle clip-path="url(#clip392)" cx="1422.03" cy="959.878" r="14.4" fill="#009af9" fill-rule="evenodd" fill-opacity="1" stroke="#000000" stroke-opacity="1" stroke-width="2.688"/>
<circle clip-path="url(#clip392)" cx="1910.82" cy="1134.87" r="14.4" fill="#009af9" fill-rule="evenodd" fill-opacity="1" stroke="#000000" stroke-opacity="1" stroke-width="2.688"/>
<circle clip-path="url(#clip392)" cx="920.545" cy="90.7498" r="14.4" fill="#009af9" fill-rule="evenodd" fill-opacity="1" stroke="#000000" stroke-opacity="1" stroke-width="2.688"/>
<circle clip-path="url(#clip392)" cx="1441.07" cy="984.03" r="14.4" fill="#009af9" fill-rule="evenodd" fill-opacity="1" stroke="#000000" stroke-opacity="1" stroke-width="2.688"/>
<circle clip-path="url(#clip392)" cx="1580.73" cy="1113.87" r="14.4" fill="#009af9" fill-rule="evenodd" fill-opacity="1" stroke="#000000" stroke-opacity="1" stroke-width="2.688"/>
<circle clip-path="url(#clip392)" cx="1669.6" cy="1122.31" r="14.4" fill="#009af9" fill-rule="evenodd" fill-opacity="1" stroke="#000000" stroke-opacity="1" stroke-width="2.688"/>
<circle clip-path="url(#clip392)" cx="1466.47" cy="1029.23" r="14.4" fill="#009af9" fill-rule="evenodd" fill-opacity="1" stroke="#000000" stroke-opacity="1" stroke-width="2.688"/>
<circle clip-path="url(#clip392)" cx="1383.94" cy="902.611" r="14.4" fill="#009af9" fill-rule="evenodd" fill-opacity="1" stroke="#000000" stroke-opacity="1" stroke-width="2.688"/>
<circle clip-path="url(#clip392)" cx="1625.16" cy="1120.23" r="14.4" fill="#009af9" fill-rule="evenodd" fill-opacity="1" stroke="#000000" stroke-opacity="1" stroke-width="2.688"/>
<circle clip-path="url(#clip392)" cx="1460.12" cy="1021.78" r="14.4" fill="#009af9" fill-rule="evenodd" fill-opacity="1" stroke="#000000" stroke-opacity="1" stroke-width="2.688"/>
<circle clip-path="url(#clip392)" cx="1491.86" cy="1057.52" r="14.4" fill="#009af9" fill-rule="evenodd" fill-opacity="1" stroke="#000000" stroke-opacity="1" stroke-width="2.688"/>
<circle clip-path="url(#clip392)" cx="1523.6" cy="1077.85" r="14.4" fill="#009af9" fill-rule="evenodd" fill-opacity="1" stroke="#000000" stroke-opacity="1" stroke-width="2.688"/>
<circle clip-path="url(#clip392)" cx="1771.17" cy="1132.04" r="14.4" fill="#009af9" fill-rule="evenodd" fill-opacity="1" stroke="#000000" stroke-opacity="1" stroke-width="2.688"/>
</svg>
